<svg xmlns="http://www.w3.org/2000/svg" xmlns:svg="http://www.w3.org/2000/svg" id="svg8" width="210mm" height="297mm" version="1.1" viewBox="0 0 210 297"><metadata id="metadata5"/><g id="layer1"><g id="g1171" transform="matrix(2.8575223,0,0,2.8025998,-141.27058,-80.186353)"><ellipse style="opacity:1;fill:teal;stroke-width:.142531;stroke-dasharray:0,1.56785" id="path1081" cx="86.105" cy="55.684" rx="34.048" ry="14.62"/><rect style="opacity:1;fill:teal;stroke-width:.125584;stroke-dasharray:0,1.38142" id="rect927" width="68.095" height="35.845" x="52.065" y="55.644"/><rect style="fill:teal;stroke-width:.0774541;stroke-dasharray:0,.851997" id="rect927-2" width="52.974" height="17.527" x="60.121" y="82.249" ry=".202"/><rect style="fill:teal;stroke-width:.0624858;stroke-dasharray:0,.687344" id="rect927-3" width="52.974" height="11.407" x="60.121" y="104.285" ry=".131"/><ellipse style="opacity:1;fill:teal;stroke-width:.196939;stroke-dasharray:0,2.16634" id="path1086" cx="86.598" cy="115.457" rx="26.498" ry="5.683"/><ellipse style="opacity:1;fill:#ff0;stroke-width:.0817428;stroke-dasharray:0,.89917" id="path1173" cx="68.269" cy="72.861" rx="8.43" ry="9.559"/><ellipse style="fill:#ff0;stroke-width:.0817428;stroke-dasharray:0,.89917" id="path1173-6" cx="104.799" cy="73.551" rx="8.43" ry="9.559"/><g id="g1273" style="opacity:.670968" transform="matrix(0.63553835,0,0,0.65522509,47.024591,14.323844)"><rect style="opacity:1;fill:#fff;stroke-width:.0696131;stroke-dasharray:0,.765744" id="rect1246" width="2.645" height="3.102" x="108.499" y="62.058"/><rect style="fill:#fff;stroke-width:.0696131;stroke-dasharray:0,.765744" id="rect1246-3" width="2.645" height="3.102" x="108.499" y="66.576"/><path style="opacity:1;fill:#fff;stroke-width:.744567;stroke-dasharray:0,8.19024" id="path1268" d="m 646.07141,457.14285 -11.13461,-19.28572 22.26922,0 z" transform="matrix(0.08886117,0.00614223,-0.00619023,0.09310003,55.454368,24.876969)"/></g></g></g></svg>